<?xml version="1.0" encoding="UTF-8" standalone="no"?>
<!-- Created with Inkscape (http://www.inkscape.org/) -->

<svg
   width="207.36458mm"
   height="172.83333mm"
   viewBox="0 0 207.36458 172.83333"
   version="1.1"
   id="svg383"
   xml:space="preserve"
   xmlns="http://www.w3.org/2000/svg"
   xmlns:svg="http://www.w3.org/2000/svg"><defs
     id="defs380" /><g
     id="layer1"
     transform="translate(-1.3333307,-42.833331)"><g
       fill="#c8494a"
       id="g423"
       transform="matrix(0.32527778,0,0,0.32920635,-90.151045,-68.273813)"><path
         d="m 431.25,337.5 h 37.5 v 150 h -37.5 z"
         id="path387" /><path
         d="m 375,337.5 h -75 c -10.312,0 -18.75,8.4375 -18.75,18.75 v 112.5 c 0,10.312 8.4375,18.75 18.75,18.75 h 75 c 10.312,0 18.75,-8.4375 18.75,-18.75 v -112.5 c 0,-10.312 -8.4375,-18.75 -18.75,-18.75 z M 356.25,450 h -37.5 v -75 h 37.5 z"
         id="path389" /><path
         d="m 656.25,337.5 h 37.5 v 150 h -37.5 z"
         id="path391" /><path
         d="m 600,337.5 h -75 c -10.312,0 -18.75,8.4375 -18.75,18.75 v 112.5 c 0,10.312 8.4375,18.75 18.75,18.75 h 75 c 10.312,0 18.75,-8.4375 18.75,-18.75 v -112.5 c 0,-10.312 -8.4375,-18.75 -18.75,-18.75 z M 581.25,450 h -37.5 v -75 h 37.5 z"
         id="path393" /><path
         d="m 881.25,337.5 h 37.5 v 150 h -37.5 z"
         id="path395" /><path
         d="m 825,487.5 c 10.312,0 18.75,-8.4375 18.75,-18.75 v -112.5 c 0,-10.312 -8.4375,-18.75 -18.75,-18.75 h -75 c -10.312,0 -18.75,8.4375 -18.75,18.75 v 112.5 c 0,10.312 8.4375,18.75 18.75,18.75 z M 768.75,375 h 37.5 v 75 h -37.5 z"
         id="path397" /><path
         d="m 506.25,525 h 37.5 v 150 h -37.5 z"
         id="path399" /><path
         d="m 356.25,543.75 v 112.5 c 0,10.312 8.4375,18.75 18.75,18.75 h 75 c 10.312,0 18.75,-8.4375 18.75,-18.75 V 543.75 C 468.75,533.438 460.3125,525 450,525 h -75 c -10.312,0 -18.75,8.4375 -18.75,18.75 z m 37.5,18.75 h 37.5 v 75 h -37.5 z"
         id="path401" /><path
         d="m 731.25,525 h 37.5 v 150 h -37.5 z"
         id="path403" /><path
         d="m 581.25,543.75 v 112.5 c 0,10.312 8.4375,18.75 18.75,18.75 h 75 c 10.312,0 18.75,-8.4375 18.75,-18.75 V 543.75 C 693.75,533.438 685.3125,525 675,525 h -75 c -10.312,0 -18.75,8.4375 -18.75,18.75 z m 37.5,18.75 h 37.5 v 75 h -37.5 z"
         id="path405" /><path
         d="m 281.25,525 h 37.5 v 150 h -37.5 z"
         id="path407" /><path
         d="m 900,525 h -75 c -10.312,0 -18.75,8.4375 -18.75,18.75 v 112.5 c 0,10.312 8.4375,18.75 18.75,18.75 h 75 c 10.312,0 18.75,-8.4375 18.75,-18.75 V 543.75 C 918.75,533.438 910.3125,525 900,525 Z m -18.75,112.5 h -37.5 v -75 h 37.5 z"
         id="path409" /><path
         d="m 431.25,712.5 h 37.5 v 150 h -37.5 z"
         id="path411" /><path
         d="m 281.25,843.75 c 0,10.312 8.4375,18.75 18.75,18.75 h 75 c 10.312,0 18.75,-8.4375 18.75,-18.75 v -112.5 c 0,-10.312 -8.4375,-18.75 -18.75,-18.75 h -75 c -10.312,0 -18.75,8.4375 -18.75,18.75 z M 318.75,750 h 37.5 v 75 h -37.5 z"
         id="path413" /><path
         d="m 656.25,712.5 h 37.5 v 150 h -37.5 z"
         id="path415" /><path
         d="m 506.25,843.75 c 0,10.312 8.4375,18.75 18.75,18.75 h 75 c 10.312,0 18.75,-8.4375 18.75,-18.75 v -112.5 c 0,-10.312 -8.4375,-18.75 -18.75,-18.75 h -75 c -10.312,0 -18.75,8.4375 -18.75,18.75 z M 543.75,750 h 37.5 v 75 h -37.5 z"
         id="path417" /><path
         d="m 881.25,712.5 h 37.5 v 150 h -37.5 z"
         id="path419" /><path
         d="m 731.25,843.75 c 0,10.312 8.4375,18.75 18.75,18.75 h 75 c 10.312,0 18.75,-8.4375 18.75,-18.75 v -112.5 c 0,-10.312 -8.4375,-18.75 -18.75,-18.75 h -75 c -10.312,0 -18.75,8.4375 -18.75,18.75 z M 768.75,750 h 37.5 v 75 h -37.5 z"
         id="path421" /></g></g></svg>
