<?xml version="1.0" encoding="UTF-8"?>
<svg width="1200pt" height="1200pt" version="1.1" viewBox="0 0 1200 1200" xmlns="http://www.w3.org/2000/svg">
 <g fill="#f9e4e4">
  <path d="m855.73 541.95c0.1875-0.88281 0.28125-1.7812 0.375-2.6992s0.1875-1.8203 0.16797-2.7188c0.019531-0.89844-0.074219-1.8008-0.16797-2.7188s-0.1875-1.8203-0.375-2.6992c-0.16797-0.86328-0.41406-1.7266-0.67578-2.5859-0.28125-0.91797-0.5625-1.8359-0.9375-2.7383-0.14844-0.33594-0.20703-0.71094-0.375-1.0508-0.22656-0.46875-0.52344-0.84375-0.76953-1.293-0.44922-0.88281-0.95703-1.7266-1.5195-2.5703-0.48828-0.73047-1.0117-1.4258-1.5547-2.082-0.58203-0.73047-1.1992-1.4258-1.8945-2.1016-0.65625-0.65625-1.3516-1.2734-2.0625-1.875-0.65625-0.54297-1.332-1.0508-2.043-1.5391-0.88281-0.60156-1.8008-1.125-2.7383-1.6133-0.39453-0.20703-0.75-0.48828-1.1797-0.69531l-228.21-105.34c-0.33594-0.14844-0.71094-0.22656-1.0508-0.35547-0.89844-0.39453-1.8359-0.67578-2.7734-0.95703-0.84375-0.26172-1.6875-0.50781-2.5508-0.67578-0.89844-0.1875-1.8203-0.28125-2.7383-0.375-0.87891-0.050781-1.7617-0.14453-2.6602-0.14453s-1.8203 0.09375-2.7383 0.16797c-0.89844 0.09375-1.8008 0.1875-2.6992 0.375-0.84375 0.16797-1.6875 0.41406-2.5117 0.65625-0.97656 0.30078-1.9297 0.60156-2.8516 0.99219-0.33594 0.13281-0.65625 0.1875-0.97656 0.33594l-228.22 105.34c-0.42969 0.20703-0.80469 0.50781-1.2188 0.73047-0.91797 0.46875-1.8008 0.99219-2.6641 1.5742-0.71094 0.46875-1.3867 0.99219-2.043 1.5391-0.75 0.60156-1.4453 1.2188-2.1172 1.9141-0.65625 0.65625-1.2578 1.332-1.8359 2.043-0.5625 0.67578-1.0859 1.3867-1.5742 2.1172-0.5625 0.84375-1.0703 1.707-1.5391 2.5859-0.22656 0.42969-0.52344 0.80469-0.75 1.2578-0.14844 0.33594-0.20703 0.67578-0.35547 0.99219-0.39453 0.9375-0.69531 1.875-0.97656 2.8516-0.24219 0.82422-0.48828 1.6484-0.65625 2.4922-0.16797 0.89844-0.26172 1.8203-0.35547 2.7383-0.09375 0.89844-0.1875 1.8008-0.1875 2.6992 0 0.89844 0.09375 1.7812 0.1875 2.6992 0.09375 0.91797 0.1875 1.8359 0.35547 2.7383 0.16797 0.84375 0.41406 1.668 0.65625 2.4922 0.28125 0.97656 0.60156 1.9141 0.97656 2.8516 0.14844 0.33594 0.20703 0.67578 0.35547 0.99219 0.13281 0.30078 0.375 0.50781 0.52344 0.78906 1.0117 2.0078 2.2109 3.918 3.6758 5.6445 0.14844 0.16797 0.26172 0.375 0.41406 0.54297 1.5391 1.707 3.3555 3.1875 5.3242 4.5195 0.5625 0.375 1.1641 0.69531 1.7422 1.0312 0.69531 0.39453 1.3125 0.88281 2.0625 1.2188l228.21 105.34c0.89844 0.41406 1.8359 0.60156 2.7578 0.91797 0.65625 0.24219 1.2734 0.48828 1.9492 0.65625 2.3438 0.60156 4.6875 1.0117 7.0508 1.0117h0.019531 0.019531c2.3438 0 4.707-0.39453 7.0508-1.0117 0.67578-0.16797 1.293-0.41406 1.9492-0.65625 0.91797-0.32031 1.8555-0.48828 2.7578-0.91797l228.24-105.31c0.75-0.33594 1.3672-0.82422 2.0625-1.2188 0.58203-0.33594 1.1641-0.63672 1.7266-1.0117 1.9688-1.332 3.8047-2.793 5.3438-4.5195 0.14844-0.16797 0.26172-0.375 0.39453-0.54297 1.4609-1.7266 2.6641-3.6016 3.6562-5.5859 0.14844-0.32031 0.39453-0.52344 0.54297-0.84375 0.16797-0.35547 0.22656-0.71094 0.375-1.0703 0.375-0.88281 0.65625-1.7812 0.9375-2.6992 0.26172-0.88281 0.52344-1.7461 0.69141-2.6289zm-255.73 68.945-161.1-74.344 161.1-74.383 161.1 74.363z"/>
  <path d="m1199.8 622.09c-0.074219-1.0703-0.13281-2.1172-0.32031-3.168-0.16797-0.86328-0.39453-1.6875-0.61719-2.5312-0.24219-0.89844-0.48828-1.8008-0.82422-2.6797-0.33594-0.84375-0.71094-1.6328-1.125-2.4375-0.39453-0.82422-0.80469-1.6328-1.293-2.3984-0.44922-0.75-0.99219-1.4453-1.5195-2.1367-0.5625-0.75-1.1641-1.4805-1.8008-2.1758-0.60156-0.63672-1.2578-1.2188-1.9297-1.8203-0.69531-0.60156-1.3672-1.1992-2.1172-1.7617-0.80469-0.58203-1.668-1.0703-2.5312-1.5547-0.52344-0.30078-0.99219-0.69531-1.5391-0.95703l-60.543-29.605 14.719-6.7891c0.75-0.35547 1.3672-0.82422 2.0625-1.2188 0.58203-0.33594 1.1641-0.63672 1.7266-1.0117 1.9688-1.332 3.8047-2.8125 5.3438-4.5391 0.14844-0.14844 0.24219-0.35547 0.39453-0.50781 1.4805-1.7266 2.6797-3.6367 3.6758-5.6445 0.16797-0.30078 0.39453-0.50781 0.54297-0.82422 0.16797-0.33594 0.22656-0.69531 0.375-1.0508 0.375-0.89844 0.65625-1.8203 0.9375-2.7383 0.26172-0.86328 0.50781-1.7266 0.67578-2.5859 0.1875-0.89844 0.28125-1.8008 0.375-2.7188s0.1875-1.8008 0.16797-2.7188c0.019531-0.89844-0.074219-1.8008-0.16797-2.7188s-0.1875-1.8203-0.375-2.7188c-0.16797-0.86328-0.41406-1.7266-0.67578-2.5859-0.28125-0.91797-0.5625-1.8359-0.9375-2.7383-0.14844-0.35547-0.20703-0.71094-0.375-1.0508-0.22656-0.46875-0.52344-0.84375-0.76953-1.293-0.44922-0.88281-0.95703-1.7266-1.5195-2.5703-0.48828-0.73047-1.0117-1.4258-1.5547-2.1016-0.58203-0.73047-1.1992-1.4062-1.875-2.0625-0.67578-0.67578-1.3672-1.3125-2.1016-1.9141-0.65625-0.52344-1.3125-1.0312-2.0078-1.5195-0.89844-0.60156-1.8203-1.1445-2.7734-1.6328-0.39453-0.20703-0.73047-0.48828-1.1445-0.67578l-526.62-242.99c-0.35547-0.14844-0.71094-0.22656-1.0508-0.375-0.88281-0.375-1.7812-0.65625-2.7188-0.9375-0.88281-0.26172-1.7422-0.52344-2.6445-0.69531-0.88281-0.16797-1.7617-0.26172-2.6641-0.35547-0.91797-0.074219-1.8203-0.16797-2.7383-0.16797s-1.8203 0.09375-2.7383 0.16797c-0.88281 0.09375-1.7812 0.1875-2.6641 0.35547-0.88281 0.16797-1.7266 0.42969-2.6055 0.69531-0.9375 0.28125-1.8555 0.58203-2.7578 0.95703-0.33594 0.14844-0.69531 0.20703-1.0312 0.35547l-526.59 243.05c-0.42969 0.20703-0.80469 0.50781-1.2383 0.73047-0.89844 0.46875-1.7812 0.99219-2.6445 1.5547-0.73047 0.48828-1.4062 0.99219-2.0625 1.5547-0.73047 0.60156-1.4258 1.1992-2.082 1.8945-0.67578 0.65625-1.2734 1.3516-1.875 2.0625-0.54297 0.67578-1.0703 1.3672-1.5547 2.1016-0.5625 0.84375-1.0703 1.707-1.5391 2.6055-0.22656 0.42969-0.52344 0.80469-0.75 1.2578-0.14844 0.33594-0.20703 0.67578-0.35547 0.99219-0.39453 0.9375-0.69531 1.875-0.97656 2.8516-0.24219 0.82422-0.48828 1.6484-0.65625 2.4922-0.16797 0.89844-0.26172 1.8203-0.35547 2.7383-0.09375 0.89844-0.1875 1.8008-0.1875 2.6992 0 0.89844 0.09375 1.7812 0.1875 2.6992 0.09375 0.91797 0.1875 1.8359 0.35547 2.7383 0.16797 0.84375 0.41406 1.668 0.65625 2.4922 0.28125 0.97656 0.60156 1.9141 0.97656 2.8516 0.14844 0.33594 0.20703 0.67578 0.35547 0.99219 0.13281 0.30078 0.375 0.50781 0.52344 0.78906 1.0117 2.0078 2.2109 3.918 3.6758 5.6445 0.14844 0.16797 0.26172 0.375 0.41406 0.54297 1.5391 1.707 3.3555 3.1875 5.3242 4.5195 0.5625 0.375 1.1641 0.69531 1.7422 1.0312 0.69531 0.39453 1.3125 0.88281 2.0625 1.2188l18.77 8.6641-64.574 31.574c-0.52344 0.26172-0.95703 0.61719-1.4805 0.91797-0.89844 0.50781-1.7812 1.0117-2.625 1.6328-0.73047 0.52344-1.3672 1.1055-2.043 1.6875-0.69531 0.60156-1.3672 1.1992-2.0078 1.8945-0.61719 0.67578-1.1797 1.3672-1.7266 2.1016-0.53906 0.73047-1.082 1.4414-1.5703 2.2109-0.46875 0.75-0.86328 1.5391-1.2578 2.3242-0.41406 0.82422-0.82422 1.668-1.1641 2.5508-0.32031 0.84375-0.5625 1.707-0.78906 2.5703-0.24219 0.88281-0.46875 1.7422-0.63672 2.6445-0.16797 1.0117-0.24219 2.0078-0.32031 3.0195-0.011719 0.57812-0.14453 1.1211-0.14453 1.7422v113.44c0 15.523 12.582 28.125 28.125 28.125s28.125-12.602 28.125-28.125v-95.867l89.98-43.988 51.094 23.57-60.695 29.68c-0.5625 0.28125-1.0117 0.65625-1.5547 0.95703-0.86328 0.48828-1.707 0.99219-2.5117 1.5742-0.75 0.52344-1.4453 1.1445-2.1172 1.7617-0.67578 0.58203-1.3125 1.1797-1.9297 1.8203-0.64062 0.67188-1.2031 1.3867-1.7656 2.1367-0.54297 0.69531-1.0703 1.3867-1.5391 2.1562-0.46875 0.76953-0.88281 1.5547-1.2734 2.3633-0.41406 0.82422-0.80469 1.6328-1.1445 2.4922-0.33594 0.86328-0.5625 1.7422-0.80469 2.625-0.24219 0.86328-0.46875 1.707-0.61719 2.6055-0.1875 1.0117-0.24219 2.0234-0.32031 3.0547-0.039062 0.58203-0.16797 1.1445-0.16797 1.7266v113.44c0 15.523 12.582 28.125 28.125 28.125 15.543 0 28.125-12.602 28.125-28.125v-95.867l86.082-42.094 55.086 25.426-62.477 30.543c-0.5625 0.28125-1.0117 0.65625-1.5391 0.95703-0.86328 0.48828-1.7266 0.99219-2.5312 1.5742-0.75 0.54297-1.4453 1.1445-2.1172 1.7617-0.67578 0.58203-1.3125 1.1797-1.9297 1.8203-0.63672 0.67578-1.1992 1.4062-1.7812 2.1562-0.54297 0.69531-1.0703 1.3867-1.5391 2.1562-0.46875 0.76953-0.88281 1.5547-1.2734 2.3633-0.41406 0.82422-0.80469 1.6328-1.1445 2.4922-0.33594 0.86328-0.5625 1.7422-0.80469 2.625-0.22656 0.86328-0.46875 1.707-0.61719 2.5859-0.1875 1.0312-0.24219 2.043-0.32031 3.0742-0.039062 0.58203-0.16797 1.1445-0.16797 1.7266v113.44c0 15.523 12.582 28.125 28.125 28.125 15.543 0 28.125-12.602 28.125-28.125l-0.003906-95.926 87.863-42.977 58.219 26.887-61.332 30c-0.52344 0.26172-0.97656 0.61719-1.4805 0.91797-0.89844 0.50781-1.7812 1.0312-2.6055 1.6328-0.73047 0.52344-1.3867 1.1055-2.0625 1.707-0.69531 0.60156-1.3672 1.1797-1.9883 1.875-0.63672 0.67578-1.1797 1.3867-1.7422 2.1016-0.54297 0.71094-1.0859 1.4453-1.5547 2.1953-0.46875 0.76953-0.86328 1.5391-1.2578 2.3438-0.41406 0.82422-0.80469 1.6484-1.1445 2.5312-0.32031 0.84375-0.5625 1.707-0.80469 2.5859-0.24219 0.86328-0.46875 1.7266-0.61719 2.625-0.1875 1.0117-0.24219 2.0234-0.32031 3.0547-0.039062 0.58203-0.16797 1.1445-0.16797 1.7266v113.44c0 15.523 12.582 28.125 28.125 28.125 15.543 0 28.125-12.602 28.125-28.125v-95.867l86.738-42.43 79.93 36.898c0.89844 0.41406 1.8359 0.60156 2.7578 0.91797 0.65625 0.24219 1.2734 0.48828 1.9492 0.65625 2.3438 0.60156 4.6875 1.0117 7.0508 1.0117h0.019531 0.019532c2.3438 0 4.707-0.39453 7.0508-1.0117 0.67578-0.16797 1.293-0.41406 1.9492-0.65625 0.91797-0.32031 1.8555-0.48828 2.7578-0.91797l84-38.758 82.668 40.426v95.887c0 15.523 12.602 28.125 28.125 28.125 15.523 0 28.125-12.602 28.125-28.125v-113.46c0-0.5625-0.13281-1.1055-0.16797-1.6484-0.074219-1.0703-0.13281-2.1172-0.32031-3.168-0.16797-0.86328-0.39453-1.6875-0.60156-2.5117-0.26172-0.91797-0.50781-1.8203-0.84375-2.6992-0.33594-0.84375-0.71094-1.6328-1.1055-2.418-0.41406-0.84375-0.82422-1.6484-1.3125-2.457-0.44922-0.73047-0.97656-1.4062-1.5-2.082-0.58203-0.76953-1.1797-1.5195-1.8359-2.2109-0.58203-0.63672-1.2188-1.1992-1.875-1.7812-0.71094-0.61719-1.4062-1.2188-2.1758-1.8008-0.78906-0.5625-1.6328-1.0508-2.4766-1.5391-0.54297-0.32031-1.0117-0.69531-1.5742-0.97656l-57.281-28.012 58.199-26.867 83.832 40.988v95.867c0 15.523 12.602 28.125 28.125 28.125 15.523 0 28.125-12.602 28.125-28.125v-113.44c0-0.60156-0.14844-1.1797-0.1875-1.7812-0.054687-1.0117-0.13281-2.0078-0.30078-3-0.16797-0.89844-0.39453-1.7617-0.63672-2.625-0.24219-0.88281-0.46875-1.7422-0.80469-2.6055-0.32031-0.86328-0.71094-1.668-1.125-2.4766-0.39453-0.82422-0.82422-1.6328-1.293-2.3984-0.44922-0.75-0.97656-1.4258-1.5-2.1016-0.58203-0.76953-1.1797-1.5195-1.8359-2.2109-0.58203-0.63672-1.2188-1.1992-1.8945-1.7812-0.69531-0.61719-1.3867-1.2188-2.1562-1.8008-0.78906-0.5625-1.6328-1.0508-2.4922-1.5391-0.52344-0.32031-0.99219-0.69531-1.5547-0.97656l-58.406-28.555 55.086-25.426 82.012 40.125v95.867c0 15.523 12.602 28.125 28.125 28.125 15.523 0 28.125-12.602 28.125-28.125v-113.44c0-0.5625-0.13281-1.1055-0.16797-1.6484-0.074219-1.0703-0.13281-2.1172-0.32031-3.168-0.16797-0.86328-0.39453-1.6875-0.60156-2.5117-0.26172-0.91797-0.50781-1.8203-0.84375-2.6992-0.33594-0.84375-0.71094-1.6328-1.1055-2.418-0.41406-0.84375-0.82422-1.668-1.3125-2.457-0.44922-0.73047-0.97656-1.4062-1.5-2.082-0.58203-0.76953-1.1797-1.5195-1.8359-2.2109-0.58203-0.63672-1.2188-1.1992-1.875-1.7812-0.71094-0.61719-1.4062-1.2188-2.1758-1.8008-0.78906-0.5625-1.6328-1.0508-2.4766-1.5391-0.54297-0.32031-1.0117-0.69531-1.5742-0.97656l-56.625-27.695 51.094-23.586 86 42.059v95.867c0 15.523 12.602 28.125 28.125 28.125s28.125-12.602 28.125-28.125v-113.44c0-0.5625-0.13281-1.0859-0.16797-1.6328zm-599.83 126.53-459.52-212.08 459.52-212.1 459.52 212.1z"/>
 </g>
</svg>
