<?xml version="1.0" encoding="UTF-8"?>
<svg width="1200pt" height="1200pt" version="1.1" viewBox="0 0 1200 1200" xmlns="http://www.w3.org/2000/svg">
 <path d="m1093.8 575.18c-18.504 0.015624-36.586 5.5117-51.973 15.789s-27.387 24.875-34.492 41.961l-96.734-21.043-31.312-137.18c26.637-11.336 46.527-34.359 53.871-62.359 7.3477-28 1.3242-57.824-16.312-80.777-17.641-22.953-44.906-36.453-73.855-36.562-28.945-0.10937-56.316 13.184-74.129 36.004l-276.63-145.64 0.003906-0.003906c9.7734-30.828 2.9414-64.516-18.062-89.105-21.008-24.59-53.215-36.598-85.191-31.758-31.977 4.8398-59.195 25.836-71.984 55.539-12.793 29.703-9.3477 63.906 9.1055 90.461l-166.51 166.55c-19.723-13.703-43.957-19.305-67.695-15.641-23.734 3.6602-45.152 16.309-59.824 35.324-14.672 19.012-21.477 42.938-19 66.828 2.4766 23.891 14.039 45.91 32.301 61.512 18.258 15.602 41.816 23.59 65.801 22.305 23.98-1.2812 46.555-11.734 63.047-29.195l170.2 111.16-15.156 170.92-0.003906 0.003907c-24.238 2.1953-46.668 13.746-62.531 32.203-15.863 18.453-23.914 42.363-22.449 66.656 1.4688 24.289 12.336 47.059 30.305 63.469 17.973 16.414 41.625 25.18 65.953 24.445 24.324-0.73438 47.406-10.914 64.352-28.383 16.945-17.465 26.422-40.848 26.422-65.184-0.007812-3.4336-0.20312-6.8672-0.58203-10.281l207.77-61.742 271.01 177.03c-13.023 24.219-14.734 52.941-4.6836 78.539 10.055 25.594 30.859 45.477 56.883 54.355 26.027 8.8828 54.645 5.8672 78.246-8.2422 23.605-14.109 39.809-37.887 44.309-65.02 4.5-27.129-3.1641-54.863-20.949-75.836-17.785-20.977-43.895-33.066-71.395-33.062-1.4258 0-2.8438 0-4.2578 0.10156l-49.516-216.91 72.164-21.473c10.059 19.906 26.895 35.566 47.473 44.16 20.582 8.5938 43.555 9.5547 64.781 2.7109 21.227-6.8438 39.309-21.043 50.992-40.043 11.688-18.996 16.203-41.539 12.738-63.57-3.4688-22.035-14.688-42.102-31.641-56.594-16.949-14.492-38.52-22.457-60.824-22.453zm-219.13 28.887-179.22-38.992-2.3242-3.4727 96.113-96.113v-0.003906c15.641 10.91 34.25 16.754 53.32 16.738 1.4414 0 2.8555 0 4.2695-0.10156zm24 105.32-89.152 26.527-87.438-130.98 160.77 34.977zm-520.42-461.94-14.777 166.94-166.94 14.805c-2.8047-10.227-7.332-19.902-13.391-28.609l166.54-166.54c8.7031 6.0625 18.375 10.594 28.598 13.402zm62.035-4.4453 103.77 155.37-146.89 13.039 14.285-161.02c9.957-0.89062 19.703-3.3867 28.863-7.3867zm-79.797 205.07-3.7891 43.277-140.21-30.504zm33.688-2.9805 170.98-15.156 83.457 124.95-259.17-56.402zm358.12-31.754h0.003907c2.8086 10.23 7.3398 19.906 13.402 28.609l-91.414 91.414-71.332-106.79zm-128.26 170.23-114.11 114.11-130.59-85.289 7.1484-80.488zm38.664 8.4141 12.52 2.7266 100.91 151.07-132.34 39.359-105.37-68.844zm179.86-263.68c15.996-0.003906 31.34 6.3477 42.652 17.656 11.316 11.312 17.672 26.652 17.676 42.648 0 16-6.3516 31.344-17.664 42.656-11.309 11.312-26.652 17.668-42.648 17.668-15.996 0.003906-31.34-6.3516-42.652-17.664s-17.668-26.652-17.668-42.648c0.015625-15.992 6.375-31.32 17.68-42.629 11.305-11.309 26.633-17.668 42.625-17.688zm-89.254 32.133c-2.0273 6.4141-3.3477 13.031-3.9414 19.73l-167.48 14.855-113.93-170.53h0.003906c3.1289-3.0156 6.0469-6.25 8.7266-9.6758zm-350.32-263.57c15.996 0 31.336 6.3555 42.648 17.668 11.312 11.309 17.664 26.652 17.664 42.648s-6.3516 31.34-17.664 42.648c-11.312 11.312-26.652 17.668-42.648 17.668-16 0-31.34-6.3555-42.652-17.668-11.312-11.309-17.664-26.652-17.664-42.648 0.015626-15.992 6.375-31.324 17.684-42.633 11.309-11.305 26.641-17.668 42.633-17.684zm-296.72 417.35c-15.996 0-31.34-6.3555-42.648-17.668-11.312-11.312-17.668-26.656-17.668-42.652 0.003907-15.996 6.3594-31.34 17.672-42.648 11.312-11.312 26.656-17.664 42.652-17.664 16 0.003906 31.34 6.3594 42.652 17.676 11.309 11.312 17.66 26.656 17.656 42.652-0.019531 15.992-6.3828 31.32-17.688 42.625-11.309 11.305-26.637 17.664-42.629 17.68zm86.223-23.875 0.23828-0.58203 160.99 35.016-5.9492 66.949zm293.39 231.43-94.852 94.852v-0.003906c-8.7031-6.0586-18.379-10.594-28.609-13.398l13.59-153.22zm-148.18 232.03c-15.996 0-31.34-6.3555-42.648-17.664-11.312-11.312-17.668-26.652-17.668-42.652 0-15.996 6.3555-31.336 17.668-42.648 11.309-11.312 26.652-17.664 42.648-17.664 15.996 0 31.336 6.3516 42.648 17.664s17.668 26.652 17.668 42.648c-0.019531 15.992-6.3789 31.324-17.688 42.633-11.305 11.309-26.637 17.668-42.629 17.684zm83.52-102.5c-1.9531-3.8633-4.1719-7.5859-6.6445-11.141l99.789-99.789 87.586 57.207zm374.27-76.496 129.7 194.18-244.86-159.95zm256.75 268.02c0 15.996-6.3555 31.34-17.668 42.648-11.309 11.312-26.652 17.668-42.648 17.668-15.996 0-31.34-6.3555-42.648-17.668-11.312-11.309-17.668-26.652-17.668-42.648s6.3555-31.34 17.668-42.648c11.309-11.312 26.652-17.668 42.648-17.668 15.992 0.015625 31.324 6.3789 42.633 17.684 11.305 11.309 17.668 26.641 17.684 42.633zm-98.047-90.391-125.29-187.58 77.23-22.953zm-23.508-252.53-11.898-52.156 81.484 17.684c0 1.0977-0.089844 2.1992-0.089844 3.3086h0.003906c0.007812 3.4375 0.20312 6.8711 0.58203 10.285zm163.11 29.203c-16 0.003906-31.344-6.3477-42.656-17.656-11.312-11.312-17.672-26.652-17.672-42.648-0.003906-16 6.3477-31.344 17.66-42.656s26.652-17.668 42.648-17.668c16-0.003906 31.34 6.3516 42.652 17.664 11.312 11.309 17.668 26.652 17.668 42.648-0.015624 15.992-6.375 31.32-17.68 42.629s-26.633 17.668-42.621 17.688z" fill="#c8494a"/>
</svg>
