<?xml version="1.0" encoding="UTF-8"?>
<svg width="1200pt" height="1200pt" version="1.1" viewBox="0 0 1200 1200" xmlns="http://www.w3.org/2000/svg">
 <path d="m472.25 48.801c-7.875 0-15.004 3.1914-20.16 8.3516-5.1602 5.1602-8.3516 12.289-8.3516 20.16 0 7.875 3.1914 15.004 8.3516 20.16 5.1602 5.1602 12.289 8.3516 20.16 8.3516 7.875 0 15.004-3.1914 20.16-8.3516 5.1602-5.1602 8.3516-12.289 8.3516-20.16 0-7.875-3.1914-15.004-8.3516-20.16-5.1602-5.1602-12.289-8.3516-20.16-8.3516zm119.37 765.46-45.984 123.53 57.941 51.289 57.945-51.289-46.023-123.63c-3.8516 1.0859-7.918 1.668-12.117 1.668-4.0703 0-8.0156-0.54688-11.762-1.5703zm-51.945 139.54-48.676 130.76c0.92578 0.55859 1.8281 1.1523 2.7109 1.7734l97.848-86.609-51.879-45.922zm-63.578 125.11 50.785-136.43-160.58-142.14c-0.73047 0.84766-1.4883 1.668-2.2773 2.457-0.98438 0.98438-2.0195 1.9258-3.0938 2.8164l99.824 273.15c2.3633-0.38672 4.7891-0.58984 7.2617-0.58984 2.7578 0 5.4609 0.25 8.082 0.73047zm56.746-152.44 44.355-119.15c-1.8789-1.3711-3.6484-2.8828-5.2891-4.5234-8.0547-8.0547-13.039-19.184-13.039-31.473 0-9.7109 3.1133-18.699 8.3906-26.016l-60.969-77.27-132.15 87.402c1.8867 4.9336 2.918 10.285 2.918 15.883 0 5.6016-1.0352 10.965-2.9258 15.902l0.61328-0.69531 158.09 139.94zm82.762 73.258 97.715 86.496c0.90625-0.63281 1.832-1.2344 2.7852-1.8047l-48.621-130.61zm86.492 97.848-98.516-87.203-98.699 87.367c4.8281 7.1172 7.6484 15.707 7.6484 24.953 0 12.289-4.9844 23.418-13.039 31.473-8.0547 8.0547-19.184 13.039-31.473 13.039-12.289 0-23.418-4.9844-31.473-13.039-8.0547-8.0547-13.039-19.184-13.039-31.473 0-12.289 4.9844-23.418 13.039-31.473 2.7344-2.7344 5.8242-5.1133 9.1914-7.0664l-98.91-270.65c-4.4805 1.5156-9.2812 2.3398-14.277 2.3398-12.289 0-23.418-4.9844-31.473-13.039-8.0547-8.0547-13.039-19.184-13.039-31.473 0-12.289 4.9844-23.418 13.039-31.473 6.2656-6.2656 14.391-10.672 23.473-12.32v-259.29c-9.0859-1.6484-17.211-6.0547-23.473-12.32-8.0547-8.0547-13.039-19.184-13.039-31.473 0-12.289 4.9844-23.418 13.039-31.473 2.375-2.375 5.0195-4.4844 7.8828-6.2773l-105.63-265.38c-2.2109 0.33594-4.4727 0.51172-6.7773 0.51172-12.289 0-23.418-4.9844-31.473-13.039-8.0547-8.0547-13.039-19.184-13.039-31.473s4.9844-23.418 13.039-31.473c8.0547-8.0547 19.184-13.039 31.473-13.039 12.289 0 23.418 4.9844 31.473 13.039 8.0547 8.0547 13.039 19.184 13.039 31.473 0 4.4219-0.64453 8.6914-1.8438 12.719l177.32 90.281 26.219-69.66c-0.67969-0.60156-1.3438-1.2266-1.9883-1.8711-8.0547-8.0547-13.039-19.184-13.039-31.473 0-12.289 4.9844-23.418 13.039-31.473 8.0547-8.0547 19.184-13.039 31.473-13.039 12.289 0 23.418 4.9844 31.473 13.039 8.0547 8.0547 13.039 19.184 13.039 31.473 0 8.2656-2.2539 16.004-6.1758 22.633l89.41 77.391 89.41-77.391c-3.9258-6.6328-6.1758-14.371-6.1758-22.633 0-12.289 4.9844-23.418 13.039-31.473 8.0547-8.0547 19.184-13.039 31.473-13.039 12.289 0 23.418 4.9844 31.473 13.039 8.0547 8.0547 13.039 19.184 13.039 31.473 0 12.289-4.9844 23.418-13.039 31.473-0.64453 0.64453-1.3047 1.2656-1.9883 1.8711l26.219 69.66 177.32-90.281c-1.1992-4.0312-1.8438-8.3008-1.8438-12.719 0-12.289 4.9844-23.418 13.039-31.473 8.0547-8.0547 19.184-13.039 31.473-13.039 12.289 0 23.418 4.9844 31.473 13.039 8.0547 8.0547 13.039 19.184 13.039 31.473s-4.9844 23.418-13.039 31.473c-8.0547 8.0547-19.184 13.039-31.473 13.039-2.3047 0-4.5664-0.17578-6.7773-0.51172l-105.63 265.38c2.8633 1.793 5.5078 3.9023 7.8828 6.2773 8.0547 8.0547 13.039 19.184 13.039 31.473 0 12.289-4.9844 23.418-13.039 31.473-5.5547 5.5547-12.574 9.6484-20.426 11.656v260.61c7.8516 2.0039 14.871 6.0977 20.426 11.656 8.0547 8.0547 13.039 19.184 13.039 31.473 0 12.289-4.9844 23.418-13.039 31.473-8.0547 8.0547-19.184 13.039-31.473 13.039-2.6289 0-5.207-0.23047-7.7148-0.66797l-98.348 269.12c3.2734 1.9258 6.2812 4.2578 8.9531 6.9258 8.0547 8.0547 13.039 19.184 13.039 31.473 0 12.289-4.9844 23.418-13.039 31.473-8.0547 8.0547-19.184 13.039-31.473 13.039-12.289 0-23.418-4.9844-31.473-13.039-8.0547-8.0547-13.039-19.184-13.039-31.473 0-9.3164 2.8633-17.965 7.7578-25.113zm-72.219-290.48 44.438 119.38 153.14-135.56c-2.9023-5.9102-4.5352-12.562-4.5352-19.59 0-6.2031 1.2695-12.109 3.5625-17.473l-129.75-85.812-59.086 74.883c6.3945 7.707 10.242 17.605 10.242 28.406 0 12.289-4.9844 23.418-13.039 31.473-1.5508 1.5508-3.2148 2.9883-4.9805 4.2969zm50.398 135.39 50.77 136.38c2.5352-0.44922 5.1445-0.68359 7.8047-0.68359 2.5703 0 5.0859 0.21875 7.5391 0.63672l98.371-269.18c-2.8086-1.668-5.418-3.6328-7.7852-5.8555zm-212.26 151.7c-7.875 0-15.004 3.1914-20.16 8.3516-5.1602 5.1602-8.3516 12.289-8.3516 20.16 0 7.875 3.1914 15.004 8.3516 20.16 5.1602 5.1602 12.289 8.3516 20.16 8.3516 7.875 0 15.004-3.1914 20.16-8.3516 5.1602-5.1602 8.3516-12.289 8.3516-20.16 0-7.875-3.1914-15.004-8.3516-20.16-5.1602-5.1602-12.289-8.3516-20.16-8.3516zm291 8.3516c-5.1602-5.1602-12.289-8.3516-20.16-8.3516-7.875 0-15.004 3.1914-20.16 8.3516-5.1602 5.1602-8.3516 12.289-8.3516 20.16 0 7.875 3.1914 15.004 8.3516 20.16 5.1602 5.1602 12.289 8.3516 20.16 8.3516 7.875 0 15.004-3.1914 20.16-8.3516 5.1602-5.1602 8.3516-12.289 8.3516-20.16 0-7.875-3.1914-15.004-8.3516-20.16zm-165.64-374.59v-117.5l-73.746 48.773 59.172 74.992c4.375-2.9062 9.2969-5.0547 14.574-6.2695zm0-147.41v-112.7c-3.0312-0.69531-5.9492-1.7031-8.707-2.9844l-57.02 72.215 65.73 43.473zm16-111.97v112.16l66.016-43.66-56.086-71.031c-3.1523 1.207-6.4805 2.0664-9.9297 2.5312zm0 141.69v116.96c5.7891 0.77734 11.223 2.668 16.082 5.4492l57.949-73.441zm23.629-152.58 55.719 70.566 136.33-90.164c-1.3789-4.293-2.125-8.875-2.125-13.629 0-6.2031 1.2695-12.105 3.5625-17.473l-118.68-60.426-65.957 55.48c3.8438 6.582 6.0469 14.242 6.0469 22.414 0 12.289-4.9844 23.418-13.039 31.473-0.60156 0.60156-1.2188 1.1836-1.8555 1.75zm65.648 83.141 39.102 49.523 102.86-130.36c-1.6445-1.2422-3.1992-2.5977-4.6523-4.0508-1.1758-1.1758-2.2891-2.4219-3.3281-3.7227zm49.254 62.375 100.85 127.72c4.2578-1.9727 8.875-3.2891 13.73-3.8281v-258.39c-2.5078-0.27734-4.9531-0.76562-7.3164-1.4414l-107.26 135.94zm87.809 136.91-97.953-124.05-31.098 39.41 128.63 85.074c0.14062-0.14453 0.28125-0.28906 0.42188-0.43359zm-108.1-136.91-42.293-53.559-69.332 45.855 77.344 51.152 34.281-43.445zm-361.47 138.39 130.23-86.129-31.098-39.41-99.129 125.54zm143.56-94.949 77.344-51.152-69.332-45.855-42.293 53.559 34.281 43.445zm-156.29 85.355 101.71-128.81-107.88-136.71c-2.1641 0.75781-4.4023 1.3516-6.707 1.7695v259.29c4.5703 0.82812 8.8984 2.3594 12.871 4.4688zm111.86-141.66 39.102-49.523-136-89.949c-1.3242 1.793-2.7812 3.4844-4.3555 5.0586-0.89062 0.89062-1.8203 1.7461-2.7852 2.5586l104.04 131.86zm49.031-62.098 57.324-72.598c-7.8906-8.0312-12.762-19.047-12.762-31.195 0-6.5781 1.4258-12.82 3.9883-18.441l-70.684-59.457-118.68 60.422c2.293 5.3633 3.5625 11.27 3.5625 17.473 0 4.1367-0.56641 8.1445-1.6211 11.945l138.87 91.848zm-181.76 214.57c-7.875 0-15.004 3.1914-20.16 8.3516-5.1602 5.1602-8.3516 12.289-8.3516 20.16 0 7.875 3.1914 15.004 8.3516 20.16 5.1602 5.1602 12.289 8.3516 20.16 8.3516 7.875 0 15.004-3.1914 20.16-8.3516 5.1602-5.1602 8.3516-12.289 8.3516-20.16 0-7.875-3.1914-15.004-8.3516-20.16-5.1602-5.1602-12.289-8.3516-20.16-8.3516zm291 8.3516c-5.1602-5.1602-12.289-8.3516-20.16-8.3516-7.875 0-15.004 3.1914-20.16 8.3516-5.1602 5.1602-8.3516 12.289-8.3516 20.16 0 7.875 3.1914 15.004 8.3516 20.16 5.1602 5.1602 12.289 8.3516 20.16 8.3516 7.875 0 15.004-3.1914 20.16-8.3516 5.1602-5.1602 8.3516-12.289 8.3516-20.16 0-7.875-3.1914-15.004-8.3516-20.16zm264.05 0c-5.1602-5.1602-12.289-8.3516-20.16-8.3516-7.875 0-15.004 3.1914-20.16 8.3516-5.1602 5.1602-8.3516 12.289-8.3516 20.16 0 7.875 3.1914 15.004 8.3516 20.16 5.1602 5.1602 12.289 8.3516 20.16 8.3516 7.875 0 15.004-3.1914 20.16-8.3516 5.1602-5.1602 8.3516-12.289 8.3516-20.16 0-7.875-3.1914-15.004-8.3516-20.16zm-398.85-632.49 46.492 114.72 52.566-45.5-87.668-75.883c-3.418 2.7539-7.2539 5.0078-11.395 6.6641zm59.414 146.6 11.703 28.879 22.508-11.461zm17.73 43.75 29.062 71.711c2.7305-0.52344 5.5469-0.79688 8.4297-0.79688 0.65234 0 1.3047 0.015625 1.9531 0.042968l28.758-70.957-34.102-17.363zm14.168 77.508-28.461-70.23-44.008 22.406 64.41 54.18c2.4258-2.4141 5.1328-4.5508 8.0625-6.3555zm-34.488-85.102-16.766-41.371-56.535 48.938 22.035 18.535 51.27-26.102zm-28.297-69.824-44.492-109.78c-0.17578 0.003906-0.35547 0.003906-0.53125 0.003906-5.4805 0-10.73-0.99219-15.582-2.8047l-25.812 68.582 86.414 43.996zm-286.54-125.78 162.43 136.62 17.719-47.078-178.91-91.09c-0.39844 0.52344-0.80859 1.0391-1.2305 1.543zm175.38 147.52 53.793 45.25 56.93-49.277-91.645-46.66zm72.777 82.027-18.816-15.828-71.277 61.699zm-31.176-26.227-47.551-39.996-44.199 117.43c0.44141 0.27344 0.87891 0.55469 1.3125 0.84375zm-60.504-50.895-168.71-141.91 105.26 264.46c2.8398-0.57031 5.7773-0.86719 8.7852-0.86719 2.9258 0 5.7891 0.28125 8.5586 0.82422l46.105-122.5zm305.19 80.449-44.008-22.406-27.277 67.309c3.7578 1.6328 7.25 3.7734 10.383 6.3281zm-147.16-92.867 54.762 27.879 54.762-27.879-54.762-47.402zm72.379 36.852 22.508 11.461 11.703-28.879zm36.805 18.738 51.27 26.102 22.035-18.535-56.535-48.938-16.766 41.371zm66.68 33.949 90.094 45.871-71.277-61.699zm-388.55 60.559c-7.875 0-15.004 3.1914-20.16 8.3516-5.1602 5.1602-8.3516 12.289-8.3516 20.16 0 7.875 3.1914 15.004 8.3516 20.16 5.1602 5.1602 12.289 8.3516 20.16 8.3516 7.875 0 15.004-3.1914 20.16-8.3516 5.1602-5.1602 8.3516-12.289 8.3516-20.16 0-7.875-3.1914-15.004-8.3516-20.16-5.1602-5.1602-12.289-8.3516-20.16-8.3516zm-136-347.13c-7.875 0-15.004 3.1914-20.16 8.3516-5.1602 5.1602-8.3516 12.289-8.3516 20.16 0 7.875 3.1914 15.004 8.3516 20.16 5.1602 5.1602 12.289 8.3516 20.16 8.3516 7.875 0 15.004-3.1914 20.16-8.3516 5.1602-5.1602 8.3516-12.289 8.3516-20.16 0-7.875-3.1914-15.004-8.3516-20.16-5.1602-5.1602-12.289-8.3516-20.16-8.3516zm646.16 338.63c0.42969-0.28906 0.86719-0.57031 1.3125-0.84375l-44.199-117.43-47.551 39.996zm-230.53-199.54 52.566 45.5 46.492-114.72c-4.1406-1.6523-7.9727-3.9102-11.395-6.6641l-87.668 75.883zm70.973 61.434 56.93 49.277 53.793-45.25-19.078-50.688zm44.055-127.5-44.492 109.78 86.414-43.996-25.812-68.582c-4.8477 1.8125-10.098 2.8047-15.582 2.8047-0.17969 0-0.35547 0-0.53125-0.003906zm254.28-5.4766-168.71 141.91 46.105 122.5c2.7695-0.53906 5.6289-0.82422 8.5586-0.82422 3.0078 0 5.9453 0.30078 8.7852 0.86719l105.26-264.46zm-174.66 126.11 162.43-136.62c-0.42188-0.50391-0.83203-1.0195-1.2305-1.543l-178.91 91.09 17.719 47.078zm-183.28 161.84c-5.1602-5.1602-12.289-8.3516-20.16-8.3516-7.875 0-15.004 3.1914-20.16 8.3516-5.1602 5.1602-8.3516 12.289-8.3516 20.16 0 7.875 3.1914 15.004 8.3516 20.16 5.1602 5.1602 12.289 8.3516 20.16 8.3516 7.875 0 15.004-3.1914 20.16-8.3516 5.1602-5.1602 8.3516-12.289 8.3516-20.16 0-7.875-3.1914-15.004-8.3516-20.16zm264.05 0c-5.1602-5.1602-12.289-8.3516-20.16-8.3516-7.875 0-15.004 3.1914-20.16 8.3516-5.1602 5.1602-8.3516 12.289-8.3516 20.16 0 7.875 3.1914 15.004 8.3516 20.16 5.1602 5.1602 12.289 8.3516 20.16 8.3516 7.875 0 15.004-3.1914 20.16-8.3516 5.1602-5.1602 8.3516-12.289 8.3516-20.16 0-7.875-3.1914-15.004-8.3516-20.16zm136-347.13c-5.1602-5.1602-12.289-8.3516-20.16-8.3516-7.875 0-15.004 3.1914-20.16 8.3516-5.1602 5.1602-8.3516 12.289-8.3516 20.16 0 7.875 3.1914 15.004 8.3516 20.16 5.1602 5.1602 12.289 8.3516 20.16 8.3516 7.875 0 15.004-3.1914 20.16-8.3516 5.1602-5.1602 8.3516-12.289 8.3516-20.16 0-7.875-3.1914-15.004-8.3516-20.16zm-275.7 0c-5.1602-5.1602-12.289-8.3516-20.16-8.3516-7.875 0-15.004 3.1914-20.16 8.3516-5.1602 5.1602-8.3516 12.289-8.3516 20.16 0 7.875 3.1914 15.004 8.3516 20.16 5.1602 5.1602 12.289 8.3516 20.16 8.3516 7.875 0 15.004-3.1914 20.16-8.3516 5.1602-5.1602 8.3516-12.289 8.3516-20.16 0-7.875-3.1914-15.004-8.3516-20.16z" fill="#f9e4e4"/>
</svg>
