<?xml version="1.0" encoding="UTF-8"?>
<svg width="1200pt" height="1200pt" version="1.1" viewBox="0 0 1200 1200" xmlns="http://www.w3.org/2000/svg">
 <g fill="#fffafa">
  <path d="m618.75 187.5c0 10.355-8.3945 18.75-18.75 18.75s-18.75-8.3945-18.75-18.75 8.3945-18.75 18.75-18.75 18.75 8.3945 18.75 18.75"/>
  <path d="m975 685.97v-200.34c29.641-5.9883 54.57-25.91 66.957-53.496 12.387-27.586 10.703-59.457-4.5195-85.586-15.219-26.129-42.109-43.312-72.219-46.148-30.105-2.8359-59.73 9.0273-79.562 31.855l-172.59-99.469c15.02-37.547 10.438-80.102-12.234-113.59-22.672-33.488-60.48-53.551-100.92-53.551s-78.25 20.062-100.92 53.551c-22.672 33.492-27.254 76.047-12.234 113.59l-172.78 99.094c-16.871-19.207-40.855-30.688-66.395-31.789-25.543-1.0977-50.426 8.2773-68.887 25.961s-28.898 42.141-28.898 67.703 10.438 50.02 28.898 67.703 43.344 27.059 68.887 25.961c25.539-1.1016 49.523-12.582 66.395-31.789l196.88 114.94c-3.1094 9.5-4.6602 19.441-4.5938 29.438-0.003906 21.613 7.457 42.562 21.125 59.305 13.668 16.742 32.699 28.246 53.875 32.57v228.75c-19.582 4.0586-37.355 14.277-50.719 29.156l-173.16-99.656c14.93-38.516 9.332-81.977-14.871-115.45-24.199-33.477-63.715-52.414-104.97-50.312-41.258 2.1016-78.641 24.961-99.312 60.727-20.672 35.766-21.824 79.566-3.0547 116.36 18.77 36.801 54.902 61.59 95.992 65.852 41.09 4.2656 81.539-12.578 107.46-44.738l172.78 99.469c-8.3086 24.184-6.3789 50.711 5.3398 73.438 11.723 22.727 32.219 39.676 56.738 46.93 24.52 7.25 50.941 4.168 73.137-8.5273 22.195-12.699 38.242-33.91 44.418-58.723 6.1797-24.812 1.957-51.074-11.691-72.695-13.652-21.625-35.539-36.734-60.598-41.828v-228.75c29.609-5.9648 54.527-25.828 66.945-53.359 12.418-27.531 10.812-59.359-4.3125-85.5-15.129-26.141-41.922-43.395-71.98-46.348-30.059-2.9492-59.695 8.7578-79.621 31.457l-196.88-114.94c6.375-19.105 6.375-39.77 0-58.875l173.34-99.656c23.152 28.113 57.66 44.398 94.078 44.398s70.926-16.285 94.078-44.398l172.69 100.22c-8.2266 25.383-5.2461 53.07 8.1953 76.121 13.441 23.051 36.066 39.285 62.211 44.629v200.34c-40.816 6.3555-75.633 32.953-92.5 70.66-16.867 37.707-13.488 81.391 8.9805 116.05 22.465 34.664 60.961 55.59 102.27 55.59s79.805-20.926 102.27-55.59c22.469-34.66 25.848-78.344 8.9805-116.05-16.867-37.707-51.684-64.305-92.5-70.66zm-731.25-235.97c-14.918 0-29.227-5.9258-39.773-16.477-10.551-10.547-16.477-24.855-16.477-39.773s5.9258-29.227 16.477-39.773c10.547-10.551 24.855-16.477 39.773-16.477s29.227 5.9258 39.773 16.477c10.551 10.547 16.477 24.855 16.477 39.773s-5.9258 29.227-16.477 39.773c-10.547 10.551-24.855 16.477-39.773 16.477zm0 440.62c-22.379 0-43.84-8.8906-59.664-24.711-15.82-15.824-24.711-37.285-24.711-59.664s8.8906-43.84 24.711-59.664c15.824-15.82 37.285-24.711 59.664-24.711s43.84 8.8906 59.664 24.711c15.82 15.824 24.711 37.285 24.711 59.664s-8.8906 43.84-24.711 59.664c-15.824 15.82-37.285 24.711-59.664 24.711zm412.5 121.88c0 14.918-5.9258 29.227-16.477 39.773-10.547 10.551-24.855 16.477-39.773 16.477s-29.227-5.9258-39.773-16.477c-10.551-10.547-16.477-24.855-16.477-39.773s5.9258-29.227 16.477-39.773c10.547-10.551 24.855-16.477 39.773-16.477s29.227 5.9258 39.773 16.477c10.551 10.547 16.477 24.855 16.477 39.773zm-56.25-468.75c14.918 0 29.227 5.9258 39.773 16.477 10.551 10.547 16.477 24.855 16.477 39.773s-5.9258 29.227-16.477 39.773c-10.547 10.551-24.855 16.477-39.773 16.477s-29.227-5.9258-39.773-16.477c-10.551-10.547-16.477-24.855-16.477-39.773s5.9258-29.227 16.477-39.773c10.547-10.551 24.855-16.477 39.773-16.477zm0-271.88c-22.379 0-43.84-8.8906-59.664-24.711-15.82-15.824-24.711-37.285-24.711-59.664s8.8906-43.84 24.711-59.664c15.824-15.82 37.285-24.711 59.664-24.711s43.84 8.8906 59.664 24.711c15.82 15.824 24.711 37.285 24.711 59.664s-8.8906 43.84-24.711 59.664c-15.824 15.82-37.285 24.711-59.664 24.711zm300 121.88c0-14.918 5.9258-29.227 16.477-39.773 10.547-10.551 24.855-16.477 39.773-16.477s29.227 5.9258 39.773 16.477c10.551 10.547 16.477 24.855 16.477 39.773s-5.9258 29.227-16.477 39.773c-10.547 10.551-24.855 16.477-39.773 16.477s-29.227-5.9258-39.773-16.477c-10.551-10.547-16.477-24.855-16.477-39.773zm56.25 496.88c-22.379 0-43.84-8.8906-59.664-24.711-15.82-15.824-24.711-37.285-24.711-59.664s8.8906-43.84 24.711-59.664c15.824-15.82 37.285-24.711 59.664-24.711s43.84 8.8906 59.664 24.711c15.82 15.824 24.711 37.285 24.711 59.664s-8.8906 43.84-24.711 59.664c-15.824 15.82-37.285 24.711-59.664 24.711z"/>
  <path d="m262.5 806.25c0 10.355-8.3945 18.75-18.75 18.75s-18.75-8.3945-18.75-18.75 8.3945-18.75 18.75-18.75 18.75 8.3945 18.75 18.75"/>
  <path d="m975 806.25c0 10.355-8.3945 18.75-18.75 18.75s-18.75-8.3945-18.75-18.75 8.3945-18.75 18.75-18.75 18.75 8.3945 18.75 18.75"/>
 </g>
</svg>
